<svg xmlns="http://www.w3.org/2000/svg" width="256" height="262" viewBox="0 0 256 262">
  <path fill="#4285F4" d="M255.9 133.5c0-10.9-.9-18.7-2.9-26.8H130.4v48h71.4c-1.4 11.9-9.1 29.8-26.2 41.8l-.2 1.6 38.8 30 2.7.3c24.8-23 39-56.8 39-94.9"/>
  <path fill="#34A853" d="M130.4 261.1c35.2 0 64.8-11.6 86.4-31.6l-41.2-31.9c-11 7.7-25.7 13.1-45.2 13.1-34.5 0-63.8-23-74.3-54.8l-1.5.1-40.4 31.2-.5 1.4c21.5 42.8 65.8 72.5 117.2 72.5"/>
  <path fill="#FBBC05" d="M56.1 155.9c-2.8-8.1-4.4-16.7-4.4-25.6s1.6-17.5 4.3-25.6l-.1-1.7-40.9-31.7-1.3.6C5 89.1 0 109.4 0 130.3c0 20.8 5 41.1 13.7 58.3l42.4-32.7"/>
  <path fill="#EB4335" d="M130.4 49.9c24.6 0 41.2 10.6 50.7 19.5l37-35.9C195.1 12.4 165.6 0 130.4 0 79 0 34.7 29.7 13.7 71.9l42.2 32.8c10.7-31.8 39.9-54.8 74.5-54.8"/>
</svg>